<?xml version="1.0" standalone="no"?>
<!DOCTYPE svg PUBLIC "-//W3C//DTD SVG 20010904//EN"
 "http://www.w3.org/TR/2001/REC-SVG-20010904/DTD/svg10.dtd">
<svg version="1.0" xmlns="http://www.w3.org/2000/svg"
 width="401.000000pt" height="401.000000pt" viewBox="0 0 401.000000 401.000000"
 preserveAspectRatio="xMidYMid meet">
<metadata>
Created by potrace 1.11, written by Peter Selinger 2001-2013
</metadata>
<g transform="translate(0.000000,401.000000) scale(0.100000,-0.100000)"
fill="#000000" stroke="none">
<path d="M1443 3899 c-5 -5 -19 -11 -31 -12 -11 0 -18 -5 -16 -9 3 -4 -2 -8
-10 -8 -8 0 -18 -5 -22 -12 -5 -7 -2 -9 7 -4 8 4 4 -1 -8 -12 -12 -11 -19 -23
-15 -27 4 -5 2 -5 -5 -1 -6 3 -24 -5 -39 -19 -15 -14 -34 -23 -41 -21 -7 3
-13 2 -13 -3 0 -4 -28 -7 -62 -6 -38 1 -72 -4 -86 -12 -12 -8 -27 -11 -32 -8
-6 3 -10 -1 -10 -10 0 -9 -4 -13 -10 -10 -5 3 -10 -1 -10 -9 0 -9 -4 -16 -9
-16 -6 0 -8 -10 -6 -21 3 -12 2 -19 -2 -16 -7 7 -43 -31 -43 -45 0 -5 -4 -7
-9 -4 -5 4 -11 2 -13 -4 -2 -8 -29 -16 -61 -19 -5 -1 -5 -5 -2 -11 6 -9 1 -11
-37 -14 -7 -1 -24 -11 -38 -23 -14 -13 -28 -23 -33 -23 -4 0 -6 -4 -2 -9 3 -6
-3 -14 -12 -20 -10 -6 -14 -11 -9 -11 5 0 4 -6 -1 -12 -6 -7 -11 -21 -12 -30
-3 -41 -5 -48 -13 -48 -5 0 -6 -4 -3 -10 3 -5 -1 -10 -10 -10 -8 0 -18 -7 -21
-15 -4 -8 -10 -15 -15 -15 -4 0 -21 -12 -36 -27 -15 -14 -21 -23 -13 -19 8 4
7 1 -4 -8 -10 -8 -16 -22 -13 -31 4 -8 2 -15 -4 -15 -6 0 -9 -8 -8 -17 1 -10
0 -20 -1 -23 -1 -3 -3 -21 -4 -40 -1 -21 -6 -34 -13 -33 -7 2 -10 -3 -8 -10 3
-6 -8 -28 -25 -47 -16 -19 -30 -42 -30 -50 0 -9 -5 -21 -12 -28 -9 -9 -9 -12
3 -12 11 0 12 -2 0 -9 -9 -6 -10 -11 -2 -15 8 -5 8 -13 1 -27 -8 -13 -7 -19 0
-19 8 0 8 -6 0 -20 -8 -15 -8 -20 1 -20 8 0 8 -4 -1 -15 -7 -8 -8 -15 -3 -15
13 0 11 -53 -2 -62 -6 -5 -5 -12 5 -18 13 -8 13 -10 -1 -10 -16 0 -18 -4 -23
-56 -1 -17 -6 -35 -9 -41 -4 -6 -1 -17 6 -25 7 -7 13 -24 12 -38 0 -14 3 -33
8 -42 5 -11 4 -18 -3 -18 -7 0 -8 -6 0 -19 5 -11 7 -22 2 -25 -4 -2 -6 -49 -4
-103 4 -153 5 -163 12 -163 6 0 8 -7 12 -49 1 -11 5 -18 8 -16 13 8 33 -33 34
-72 1 -11 4 -19 9 -16 4 2 7 -5 7 -16 0 -12 5 -21 11 -21 5 0 8 -4 5 -9 -4 -5
-2 -21 4 -35 7 -19 6 -26 -3 -26 -8 0 -8 -3 -1 -8 5 -4 10 -24 10 -45 -1 -23
5 -42 12 -46 8 -4 13 -10 12 -12 -3 -7 22 -73 42 -112 5 -10 6 -22 3 -27 -4
-6 0 -10 7 -10 9 0 9 -3 -2 -10 -12 -7 -12 -10 -1 -10 7 0 11 -6 7 -15 -3 -8
-2 -15 2 -15 4 0 8 -17 8 -38 4 -95 8 -132 15 -132 4 0 6 -8 5 -17 -2 -10 2
-21 8 -25 8 -5 7 -8 -2 -8 -10 0 -9 -6 2 -29 12 -22 12 -31 3 -41 -9 -10 -9
-11 1 -6 11 6 17 -11 13 -36 0 -5 2 -8 6 -8 7 0 11 -17 16 -72 1 -9 6 -14 11
-11 5 4 7 -1 3 -9 -3 -9 2 -26 10 -39 9 -12 11 -19 5 -15 -6 3 -4 -7 4 -23 8
-17 17 -38 19 -48 2 -10 9 -31 16 -48 7 -16 12 -33 11 -37 -1 -5 2 -8 8 -8 5
0 10 -12 10 -26 0 -16 4 -23 11 -18 7 4 10 1 7 -7 -3 -8 2 -20 11 -27 12 -10
13 -12 1 -6 -13 7 -13 6 0 -12 8 -10 24 -27 34 -37 10 -9 14 -17 8 -17 -6 0 0
-11 13 -25 14 -13 25 -29 25 -35 0 -5 7 -10 15 -10 8 0 15 -7 15 -15 0 -8 5
-15 11 -15 8 0 7 -6 -2 -17 -8 -9 -9 -14 -2 -10 6 4 13 1 16 -5 5 -17 -14 -59
-24 -52 -5 3 -9 -2 -9 -10 0 -14 -6 -18 -26 -15 -4 0 -11 -5 -15 -13 -5 -7 -9
-8 -9 -2 0 6 -17 11 -37 12 -68 2 -73 3 -78 13 -4 5 -12 6 -18 2 -7 -4 -23 -9
-37 -10 -63 -7 -71 -9 -79 -21 -4 -8 -17 -12 -27 -10 -12 2 -18 -2 -16 -11 3
-12 1 -12 -14 0 -13 10 -16 11 -10 1 5 -9 1 -15 -13 -19 -11 -3 -23 -14 -26
-24 -4 -11 -11 -17 -16 -14 -5 4 -9 1 -9 -5 0 -6 -11 -15 -25 -22 -13 -6 -22
-15 -19 -19 3 -5 -2 -6 -10 -3 -8 3 -21 2 -28 -2 -7 -5 -16 -9 -20 -10 -5 -1
-9 -2 -10 -4 -4 -2 -24 -7 -102 -25 -37 -8 -73 -18 -78 -21 -6 -4 -29 -8 -52
-10 -57 -4 -66 -6 -66 -16 0 -5 -4 -6 -10 -3 -5 3 -10 2 -10 -4 0 -6 -7 -7
-17 -4 -11 4 -14 3 -9 -5 4 -7 2 -12 -4 -12 -6 0 -8 -5 -5 -10 3 -5 -1 -10 -9
-10 -9 0 -16 -4 -16 -10 0 -5 -6 -9 -12 -7 -10 1 -14 -39 -16 -171 l-2 -172
1955 0 1955 0 0 520 0 520 -36 0 c-25 0 -33 3 -28 13 6 9 4 9 -8 -1 -11 -9
-18 -10 -23 -2 -3 6 -11 8 -16 5 -5 -4 -9 0 -9 7 0 10 -2 10 -9 -1 -6 -10 -10
-10 -16 -1 -4 6 -13 9 -21 6 -7 -3 -16 0 -20 6 -4 7 -9 6 -15 -3 -6 -10 -9
-11 -9 -1 0 7 -13 12 -31 12 -16 0 -28 3 -26 8 3 4 -16 8 -41 8 -119 4 -187
10 -192 16 -3 4 -17 8 -30 10 -14 2 -31 7 -37 11 -8 5 -13 4 -13 -3 0 -7 -6
-8 -19 -1 -10 6 -21 7 -25 4 -10 -10 -36 -12 -36 -3 0 4 -13 13 -30 20 -16 7
-28 15 -26 19 2 3 -12 7 -31 8 -19 1 -40 7 -47 12 -9 7 -16 7 -24 -1 -9 -9
-12 -9 -12 0 0 7 -13 12 -29 12 -17 0 -33 5 -36 11 -4 6 -13 8 -21 5 -8 -3
-14 0 -14 6 0 6 -3 9 -6 5 -7 -7 -80 28 -89 43 -3 5 -1 10 6 10 8 0 9 4 0 13
-8 10 -7 17 2 26 9 9 9 14 -2 20 -10 6 -10 13 -2 28 5 11 8 23 4 26 -3 4 -7
41 -9 83 -2 45 -8 80 -15 84 -8 6 -8 9 0 14 6 4 8 13 4 19 -12 19 -12 37 -1
37 7 0 7 5 -1 13 -8 10 -7 17 1 25 9 9 9 12 -1 12 -6 0 1 14 18 32 21 23 27
36 20 44 -7 8 -6 15 1 19 7 4 10 16 7 26 -3 11 0 19 5 19 6 0 5 6 -2 15 -7 8
-9 15 -5 15 4 0 2 6 -4 14 -7 8 -8 17 -3 20 11 7 9 35 -5 61 -6 11 -9 28 -8
38 2 9 -2 17 -8 17 -7 0 -5 5 3 10 8 5 12 10 7 10 -4 0 0 11 9 25 8 13 13 29
9 35 -3 5 -1 10 6 10 7 0 9 3 6 7 -4 3 -1 13 6 21 9 13 9 14 0 8 -7 -4 -13 -3
-13 3 0 5 4 12 9 15 4 3 8 16 7 28 -1 13 4 29 11 36 7 8 11 17 8 22 -3 4 1 10
9 13 12 5 22 36 28 85 1 6 5 12 9 12 9 0 -1 41 -15 59 -8 11 -8 13 2 7 6 -4
12 -2 12 3 0 6 -4 11 -8 11 -4 0 -8 10 -9 22 -1 11 -7 24 -13 28 -7 4 -11 10
-11 14 3 20 0 26 -9 21 -5 -3 -10 -2 -10 4 0 5 -11 8 -25 7 -15 -2 -31 5 -42
17 -13 15 -14 18 -3 12 8 -4 5 2 -7 14 -25 24 -24 22 -27 69 -1 17 2 32 7 32
5 0 7 7 4 15 -4 8 -3 17 2 19 9 6 8 36 -1 52 -4 5 -3 16 2 24 9 14 -5 54 -29
83 -8 9 -11 20 -8 24 4 3 2 12 -4 19 -6 8 -9 21 -5 29 3 8 2 15 -2 15 -4 0 -7
18 -6 40 0 21 -3 37 -8 34 -7 -5 -12 18 -9 39 0 4 -4 7 -10 7 -5 0 -8 4 -4 9
3 5 -2 16 -10 25 -9 8 -16 18 -15 21 1 25 -1 35 -8 31 -7 -4 -11 9 -14 51 -1
7 -5 10 -10 7 -7 -5 -12 19 -11 53 1 7 -3 10 -8 7 -8 -4 -14 31 -7 39 2 1 -5
13 -14 26 -9 13 -14 30 -11 37 3 8 0 14 -7 14 -7 0 -10 8 -7 20 3 11 1 18 -3
15 -5 -3 -12 0 -17 7 -4 7 -17 20 -27 28 -18 13 -19 13 -11 0 8 -13 7 -13 -9
0 -10 8 -24 15 -30 15 -21 2 -46 17 -46 29 0 6 -23 24 -50 40 -39 24 -47 33
-38 43 6 8 7 13 2 12 -19 -3 -28 2 -16 9 17 11 -30 63 -58 65 -11 1 -20 4 -20
8 0 9 -20 6 -37 -4 -8 -5 -13 -3 -13 3 0 6 -4 9 -9 5 -5 -3 -21 6 -35 20 -14
14 -31 25 -38 25 -23 1 -51 28 -45 45 4 8 2 15 -4 15 -6 0 -7 5 -4 10 3 6 -1
10 -10 10 -9 0 -13 5 -10 10 3 6 -1 10 -9 10 -9 0 -16 6 -16 13 0 8 -3 8 -8 2
-8 -13 -22 -13 -41 -1 -9 6 -12 5 -8 -1 4 -6 -8 -10 -29 -11 -19 -1 -39 -4
-44 -7 -5 -3 -12 0 -16 6 -5 8 -3 9 6 4 9 -5 11 -4 6 3 -5 8 -13 9 -25 2 -10
-5 -21 -7 -24 -3 -6 6 -28 9 -75 12 -14 1 -26 10 -33 27 -5 15 -12 24 -16 20
-3 -3 -13 0 -21 7 -13 10 -14 9 -7 -3 8 -13 7 -13 -8 -1 -9 7 -17 9 -17 4 0
-11 -1 -11 -82 -17 -39 -2 -56 0 -51 7 4 6 1 7 -6 2 -17 -10 -111 -13 -111 -4
0 5 -7 5 -17 2 -11 -4 -14 -3 -9 6 6 8 -1 10 -24 6 -20 -4 -29 -2 -25 5 8 13
2 13 -12 -1z"/>
</g>
</svg>
